<svg width="164" height="31" viewBox="0 0 164 31" fill="none" xmlns="http://www.w3.org/2000/svg">
<path d="M33.4079 0.250012C29.7994 2.26436 19.6362 10.5521 18.4128 11.5593C17.1838 10.5521 7.02058 2.26436 3.4121 0.250012C2.08207 -0.494653 0 0.517869 0 2.05006V28.8366C0 30.8724 2.76668 31.3867 3.92836 30.7331C6.54913 29.292 15.7135 21.5935 14.7819 20.447C14.6449 20.2547 14.4889 20.0753 14.3161 19.9113C13.2778 18.947 5.00594 24.4168 5.00594 24.4168V7.02701C5.00594 7.02701 13.2835 14.6504 16.892 15.9576C17.2882 16.0774 17.6999 16.1441 18.1153 16.1558H18.6765C19.092 16.1441 19.5037 16.0774 19.8999 15.9576C23.514 14.6504 31.7861 7.02701 31.7861 7.02701V24.4168C31.7861 24.4168 23.514 18.947 22.4758 19.9113C22.303 20.0753 22.147 20.2547 22.01 20.447C21.084 21.5935 30.2428 29.292 32.8635 30.7331C34.0476 31.3867 36.7919 30.8724 36.7919 28.8366V2.05006C36.8199 0.517869 34.7379 -0.494653 33.4079 0.250012Z" fill="#A5D5C8"/>
<path d="M62.6679 6.86607C62.7952 6.9819 62.8957 7.12176 62.9633 7.2767C63.0309 7.43164 63.0642 7.59831 63.0607 7.76613V23.9881C63.0639 24.16 63.0303 24.3308 62.9619 24.4899C62.8936 24.6491 62.792 24.7932 62.6633 24.9136C62.5346 25.0339 62.3815 25.1279 62.2135 25.1899C62.0454 25.2518 61.8659 25.2803 61.6858 25.2738C61.5001 25.2812 61.3145 25.2533 61.1401 25.1917C60.9657 25.1301 60.806 25.036 60.67 24.9149C60.5412 24.7946 60.4398 24.6501 60.3722 24.4906C60.3046 24.3311 60.2723 24.16 60.2772 23.9881V11.5752L54.8279 19.4557C54.6951 19.6196 54.5291 19.7563 54.3398 19.8575C54.1581 19.9633 53.9455 20.0103 53.7336 19.9915C53.5365 20.0037 53.3403 19.9569 53.1724 19.8575C52.9831 19.7563 52.8171 19.6196 52.6843 19.4557L47.207 11.334V23.9881C47.2205 24.3292 47.0935 24.6618 46.8534 24.9149C46.7336 25.0358 46.5878 25.1304 46.4261 25.1924C46.2643 25.2544 46.0903 25.2821 45.9162 25.2738C45.7457 25.2801 45.5758 25.2513 45.4179 25.1893C45.2601 25.1274 45.118 25.0338 45.0014 24.9149C44.7613 24.6618 44.6345 24.3292 44.6479 23.9881V7.76613C44.65 7.42852 44.7911 7.10521 45.0408 6.86607C45.1686 6.74016 45.3223 6.64092 45.4923 6.57453C45.6623 6.50815 45.8448 6.47607 46.0285 6.48036C46.2579 6.48146 46.4834 6.53669 46.685 6.64111C46.8924 6.74201 47.0715 6.88895 47.207 7.06965L53.8627 16.7128L60.597 7.06965C60.7185 6.89053 60.8847 6.74296 61.0805 6.64013C61.2764 6.53729 61.4959 6.48239 61.7194 6.48036C62.0748 6.49199 62.413 6.62948 62.6679 6.86607Z" fill="black"/>
<path d="M79.0311 11.3987C79.159 11.5248 79.2587 11.6742 79.3243 11.8381C79.3899 12.002 79.42 12.177 79.4127 12.3523V23.9884C79.4162 24.1569 79.3842 24.3243 79.3187 24.4807C79.2531 24.6371 79.1553 24.7794 79.0311 24.8991C78.7714 25.1346 78.4268 25.266 78.0686 25.266C77.7104 25.266 77.366 25.1346 77.1063 24.8991C76.9846 24.7751 76.8896 24.6295 76.827 24.4704C76.7644 24.3114 76.7353 24.1421 76.7414 23.9723V23.2758C76.208 23.9438 75.528 24.4924 74.7491 24.883C73.9134 25.3202 72.9748 25.5469 72.0218 25.542C70.7947 25.5538 69.5902 25.2263 68.5537 24.5991C67.501 23.9614 66.6555 23.056 66.1124 21.9847C65.5286 20.8074 65.2258 19.5211 65.2258 18.2186C65.2258 16.916 65.5286 15.6297 66.1124 14.4524C66.654 13.3834 67.4951 12.4785 68.5424 11.838C69.4577 11.289 70.5031 10.9693 71.5821 10.9084C72.6612 10.8475 73.739 11.0475 74.7156 11.4898C75.5051 11.8356 76.2018 12.3486 76.7526 12.9898V12.3469C76.7423 12.0011 76.8731 11.6649 77.1175 11.4094C77.239 11.2852 77.3871 11.1874 77.5517 11.1227C77.7163 11.058 77.8936 11.0279 78.0715 11.0344C78.249 11.0298 78.4256 11.0597 78.5906 11.1223C78.7556 11.1849 78.9054 11.279 79.0311 11.3987ZM74.6762 22.5419C75.3696 22.1027 75.9245 21.4916 76.2813 20.774C76.6691 19.9758 76.861 19.1036 76.8425 18.2239C76.8592 17.3547 76.6673 16.4934 76.2813 15.706C75.9235 14.9847 75.3691 14.3686 74.6762 13.922C73.983 13.4792 73.1645 13.2493 72.3305 13.2631C71.5007 13.2496 70.6856 13.4735 69.9902 13.9059C69.2954 14.3457 68.7403 14.9591 68.3853 15.6792C68.0078 16.4801 67.8127 17.3484 67.8127 18.2266C67.8127 19.1048 68.0078 19.9731 68.3853 20.774C68.7421 21.4916 69.2969 22.1027 69.9902 22.5419C70.6924 22.9621 71.5045 23.1851 72.3332 23.1851C73.162 23.1851 73.9741 22.9621 74.6762 22.5419Z" fill="black"/>
<path d="M82.4019 9.04156C82.276 8.92648 82.1788 8.78582 82.1176 8.63002C82.0564 8.47422 82.0327 8.30724 82.0483 8.14151V7.71296C82.0313 7.54312 82.0571 7.37181 82.1235 7.2134C82.1899 7.05499 82.295 6.91402 82.43 6.80218C82.7805 6.59945 83.1884 6.50584 83.5972 6.53432C83.9935 6.50363 84.3891 6.60182 84.7196 6.81291C84.8454 6.928 84.9426 7.06865 85.0039 7.22445C85.0651 7.38025 85.0888 7.54723 85.0732 7.71296V8.14151C85.0922 8.31004 85.069 8.48046 85.0056 8.63878C84.9422 8.79711 84.8403 8.93885 84.7083 9.05229C84.3651 9.25755 83.9617 9.3515 83.558 9.32015C83.1507 9.3544 82.7433 9.25622 82.4019 9.04156ZM84.5345 24.8992C84.4103 25.0231 84.2602 25.1206 84.0938 25.1852C83.9275 25.2498 83.7487 25.2801 83.5692 25.2742C83.3933 25.2784 83.2183 25.2473 83.0558 25.1827C82.8934 25.118 82.747 25.0214 82.6263 24.8992C82.5021 24.7795 82.4044 24.6372 82.3389 24.4808C82.2733 24.3243 82.2413 24.1569 82.2447 23.9885V12.3792C82.2416 12.2107 82.2737 12.0434 82.3393 11.887C82.4048 11.7306 82.5024 11.5883 82.6263 11.4684C82.747 11.3461 82.8934 11.2495 83.0558 11.1849C83.2183 11.1203 83.3933 11.0891 83.5692 11.0934C83.7487 11.0874 83.9275 11.1178 84.0938 11.1824C84.2602 11.247 84.4103 11.3444 84.5345 11.4684C84.6584 11.5883 84.756 11.7306 84.8215 11.887C84.887 12.0434 84.9192 12.2107 84.916 12.3792V23.9885C84.9195 24.1569 84.8875 24.3243 84.8219 24.4808C84.7564 24.6372 84.6587 24.7795 84.5345 24.8992Z" fill="black"/>
<path d="M90.2758 24.8989C90.1519 25.0202 90.0033 25.116 89.8393 25.1805C89.6752 25.2449 89.4992 25.2768 89.3218 25.2739C89.1459 25.2782 88.9709 25.247 88.8084 25.1824C88.646 25.1178 88.4996 25.0212 88.3789 24.8989C88.2547 24.7792 88.157 24.637 88.0915 24.4805C88.0259 24.3241 87.9939 24.1567 87.9973 23.9882V6.72157C87.9966 6.55207 88.0311 6.38416 88.0988 6.22749C88.1666 6.07083 88.2664 5.92856 88.3922 5.80895C88.518 5.68935 88.6673 5.59474 88.8317 5.53069C88.9961 5.46665 89.1722 5.43445 89.3498 5.43587C89.5248 5.43199 89.6988 5.46339 89.8603 5.52801C90.0217 5.59263 90.1672 5.68898 90.287 5.81085C90.4113 5.93055 90.5089 6.07282 90.5745 6.22926C90.64 6.3857 90.6721 6.55311 90.6686 6.72157V23.9882C90.6716 24.1576 90.6383 24.3257 90.5708 24.4823C90.5032 24.6389 90.4028 24.7807 90.2758 24.8989Z" fill="black"/>
<path d="M104.459 11.8429C105.502 12.482 106.342 13.3803 106.889 14.4412C107.492 15.6064 107.796 16.8918 107.776 18.1913C107.795 19.501 107.491 20.7967 106.889 21.9736C106.349 23.0465 105.508 23.9552 104.459 24.5986C103.456 25.2172 102.286 25.5448 101.092 25.5415C100.144 25.5471 99.2081 25.334 98.3647 24.9201C97.577 24.5543 96.8791 24.034 96.3164 23.3932V24.1701C96.3198 24.3385 96.2878 24.506 96.2222 24.6624C96.1567 24.8188 96.0589 24.9611 95.9346 25.0808C95.6798 25.319 95.3373 25.4524 94.9806 25.4524C94.624 25.4524 94.2815 25.319 94.0266 25.0808C93.9004 24.9592 93.8014 24.8143 93.7358 24.6549C93.6702 24.4956 93.6393 24.3251 93.6451 24.154V6.69993C93.639 6.53013 93.6681 6.36084 93.7307 6.2018C93.7933 6.04276 93.8881 5.8971 94.0098 5.77313C94.2695 5.5376 94.6141 5.40625 94.9723 5.40625C95.3305 5.40625 95.6749 5.5376 95.9346 5.77313C96.0589 5.89283 96.1567 6.03509 96.2222 6.19153C96.2878 6.34797 96.3198 6.51538 96.3164 6.68384V13.2251C96.8257 12.5322 97.4985 11.9633 98.2805 11.5643C99.1191 11.1053 100.069 10.8651 101.036 10.8679C102.252 10.869 103.441 11.2078 104.459 11.8429ZM103.028 22.5254C103.729 22.0793 104.288 21.4586 104.644 20.7307C105.03 19.9374 105.222 19.071 105.206 18.1967C105.222 17.3275 105.03 16.4662 104.644 15.6788C104.287 14.9568 103.728 14.3432 103.028 13.9055C102.335 13.4775 101.525 13.2539 100.699 13.2626C99.8626 13.2507 99.0409 13.4743 98.3366 13.9055C97.6347 14.3352 97.0683 14.9388 96.6979 15.652C96.3091 16.4441 96.117 17.3113 96.1367 18.186C96.1183 19.0657 96.3102 19.9378 96.6979 20.736C97.0583 21.4575 97.6168 22.0722 98.3141 22.5147C99.0145 22.9557 99.8379 23.1853 100.677 23.1736C101.511 23.1896 102.331 22.9636 103.028 22.5254Z" fill="black"/>
<path d="M121.527 11.6021C121.65 11.7223 121.747 11.8648 121.811 12.0212C121.876 12.1776 121.907 12.3448 121.903 12.5129V19.6435C121.903 21.5042 121.366 22.949 120.292 23.9776C119.218 25.0062 117.696 25.5205 115.724 25.5205C113.777 25.5205 112.273 24.9847 111.201 23.9776C110.129 22.9704 109.601 21.5024 109.601 19.6435V12.5129C109.598 12.3445 109.63 12.1771 109.696 12.0208C109.761 11.8644 109.859 11.722 109.983 11.6021C110.103 11.4803 110.248 11.3839 110.41 11.3193C110.571 11.2547 110.745 11.2233 110.92 11.2272C111.101 11.2208 111.28 11.2509 111.447 11.3155C111.615 11.3801 111.766 11.4778 111.891 11.6021C112.015 11.722 112.113 11.8644 112.178 12.0208C112.244 12.1771 112.276 12.3445 112.273 12.5129V19.6435C112.273 21.99 113.423 23.1615 115.724 23.1579C116.2 23.1896 116.678 23.1276 117.128 22.9755C117.578 22.8234 117.99 22.5846 118.339 22.2739C118.99 21.5445 119.313 20.599 119.237 19.6435V12.5129C119.232 12.3443 119.264 12.1767 119.33 12.0201C119.395 11.8635 119.494 11.7213 119.619 11.6021C119.738 11.4797 119.883 11.383 120.045 11.3183C120.206 11.2537 120.381 11.2226 120.556 11.2272C120.736 11.2211 120.916 11.2514 121.083 11.316C121.25 11.3806 121.401 11.4781 121.527 11.6021Z" fill="black"/>
<path d="M128.622 13.7185V21.7116C128.622 22.6063 129.043 23.051 129.885 23.051C130.066 23.0418 130.245 23.0112 130.418 22.9599C130.6 22.9022 130.789 22.8697 130.979 22.8634C131.099 22.8632 131.217 22.8897 131.325 22.9409C131.432 22.9921 131.525 23.0664 131.597 23.1581C131.707 23.2909 131.784 23.4456 131.822 23.6108C131.861 23.776 131.86 23.9474 131.819 24.1122C131.779 24.2769 131.7 24.4308 131.589 24.5625C131.477 24.6941 131.336 24.8 131.176 24.8724C130.721 25.1415 130.195 25.2809 129.661 25.2742C129.093 25.2796 128.528 25.2166 127.977 25.0867C127.416 24.9343 126.93 24.5986 126.602 24.1384C126.146 23.4467 125.934 22.6339 125.996 21.8188V13.7185H124.369C124.205 13.7232 124.042 13.6961 123.89 13.6391C123.737 13.582 123.598 13.496 123.482 13.3864C123.366 13.2754 123.276 13.143 123.216 12.9975C123.156 12.8519 123.128 12.6962 123.134 12.5399C123.126 12.3857 123.153 12.2317 123.213 12.0884C123.273 11.945 123.365 11.8158 123.482 11.7095C123.6 11.6025 123.739 11.519 123.891 11.4638C124.044 11.4086 124.206 11.3829 124.369 11.3881H125.996V9.13263C125.993 8.96429 126.026 8.79716 126.091 8.64085C126.157 8.48453 126.254 8.34215 126.378 8.22192C126.502 8.09799 126.652 8.0005 126.818 7.93587C126.985 7.87124 127.163 7.84095 127.343 7.84693C127.519 7.84264 127.694 7.8738 127.856 7.93842C128.019 8.00304 128.165 8.09964 128.286 8.22192C128.409 8.34215 128.506 8.48453 128.572 8.64085C128.637 8.79716 128.67 8.96429 128.667 9.13263V11.3667H130.935C131.098 11.3606 131.262 11.387 131.414 11.4441C131.567 11.5012 131.706 11.5878 131.822 11.6985C131.937 11.8091 132.028 11.9415 132.088 12.0872C132.148 12.2329 132.175 12.3888 132.169 12.5452C132.174 12.6991 132.146 12.8523 132.086 12.9952C132.026 13.1381 131.936 13.2677 131.821 13.3756C131.582 13.5907 131.263 13.7063 130.935 13.6971L128.622 13.7185Z" fill="black"/>
<path d="M136.545 24.899C136.421 25.0208 136.273 25.1169 136.109 25.1814C135.945 25.246 135.768 25.2775 135.591 25.274C135.415 25.2783 135.24 25.2471 135.077 25.1825C134.915 25.1179 134.769 25.0213 134.648 24.899C134.525 24.779 134.428 24.6366 134.363 24.4801C134.298 24.3237 134.267 24.1564 134.272 23.9883V6.72164C134.271 6.55259 134.305 6.38512 134.373 6.22881C134.44 6.07249 134.54 5.93046 134.665 5.81092C134.79 5.69139 134.939 5.5967 135.102 5.53233C135.266 5.46797 135.442 5.43523 135.619 5.43594C135.795 5.43164 135.97 5.46281 136.132 5.52743C136.295 5.59205 136.441 5.68864 136.562 5.81092C136.685 5.93089 136.782 6.07333 136.847 6.22979C136.911 6.38625 136.942 6.55352 136.938 6.72164V23.9883C136.942 24.1578 136.909 24.3261 136.841 24.4829C136.774 24.6396 136.673 24.7813 136.545 24.899Z" fill="black"/>
<path d="M152.102 18.5349C151.847 18.7519 151.517 18.8703 151.176 18.867H141.288C141.364 20.0665 141.923 21.1914 142.848 22.0064C143.756 22.7947 144.949 23.2171 146.176 23.185C146.925 23.2128 147.672 23.0848 148.364 22.81C148.912 22.5683 149.414 22.2425 149.851 21.8457C150.097 21.6962 150.38 21.6128 150.671 21.6046C150.82 21.6017 150.968 21.6289 151.105 21.6842C151.242 21.7396 151.366 21.822 151.468 21.926C151.572 22.0238 151.655 22.1406 151.71 22.2695C151.766 22.3983 151.794 22.5366 151.793 22.6761C151.785 22.8749 151.73 23.0694 151.633 23.2455C151.536 23.4215 151.399 23.5747 151.232 23.694C150.607 24.2632 149.871 24.7092 149.066 25.0065C148.196 25.3591 147.261 25.5412 146.316 25.5422C144.922 25.5706 143.544 25.255 142.315 24.6261C141.185 24.0424 140.257 23.1585 139.643 22.0814C139.003 20.9445 138.679 19.6701 138.701 18.3795C138.67 17.0046 139.004 15.6446 139.671 14.4258C140.259 13.3479 141.144 12.4439 142.23 11.8114C143.257 11.2105 144.439 10.8951 145.643 10.9007C146.828 10.8982 147.992 11.2038 149.01 11.7847C150.059 12.3757 150.931 13.2152 151.541 14.2222C152.184 15.2821 152.522 16.4851 152.523 17.7098C152.516 17.8677 152.475 18.0225 152.403 18.1645C152.331 18.3065 152.228 18.4326 152.102 18.5349ZM142.915 14.1097C142.087 14.7712 141.547 15.7032 141.4 16.7241H149.683V16.5098C149.644 16.0535 149.506 15.6099 149.277 15.2077C149.048 14.8054 148.733 14.4533 148.353 14.174C147.588 13.5783 146.63 13.2562 145.643 13.2633C144.659 13.2434 143.698 13.5417 142.915 14.1097Z" fill="black"/>
<path d="M162.92 11.2645C163.081 11.3594 163.214 11.4916 163.308 11.649C163.401 11.8064 163.451 11.9837 163.453 12.1644C163.466 12.3421 163.441 12.5205 163.38 12.6889C163.32 12.8573 163.224 13.0124 163.099 13.1448C162.989 13.2528 162.856 13.338 162.709 13.3951C162.562 13.4522 162.405 13.48 162.246 13.477C161.987 13.4589 161.732 13.4048 161.489 13.3163C161.189 13.2108 160.876 13.1477 160.557 13.1288C159.945 13.1434 159.355 13.3463 158.874 13.7073C158.291 14.1283 157.826 14.6805 157.521 15.3145C157.171 16.0133 156.995 16.7796 157.005 17.5539V24.0148C157.008 24.1833 156.976 24.3507 156.911 24.5071C156.845 24.6635 156.747 24.8059 156.623 24.9256C156.364 25.1611 156.019 25.2924 155.661 25.2924C155.303 25.2924 154.958 25.1611 154.698 24.9256C154.577 24.8016 154.482 24.6559 154.419 24.4968C154.357 24.3378 154.327 24.1685 154.334 23.9987V12.5234C154.33 12.355 154.363 12.1876 154.428 12.0312C154.494 11.8748 154.591 11.7325 154.715 11.6126C154.835 11.4908 154.98 11.3944 155.142 11.3298C155.303 11.2652 155.477 11.2338 155.652 11.2376C155.833 11.2312 156.013 11.2614 156.18 11.326C156.347 11.3906 156.498 11.4883 156.623 11.6126C156.747 11.7325 156.845 11.8748 156.91 12.0312C156.976 12.1876 157.008 12.355 157.005 12.5234V13.8895C157.401 13.0246 158.043 12.2825 158.857 11.7466C159.683 11.204 160.66 10.911 161.663 10.9055C162.111 10.8964 162.551 11.022 162.92 11.2645Z" fill="black"/>
</svg>
